/* XPM */
static char *_fd3333819ea4f15eda59c58dee8de91[] = {
/* columns rows colors chars-per-pixel */
"32 32 233 2 ",
"   c #060606",
".  c #111111",
"X  c #131313",
"o  c gray8",
"O  c #151414",
"+  c #151515",
"@  c #161616",
"#  c gray9",
"$  c #181818",
"%  c #191919",
"&  c #19191A",
"*  c gray10",
"=  c #1B1B1B",
"-  c #1C1B1C",
";  c gray11",
":  c #1D1C1C",
">  c #1C1D1C",
",  c #1D1D1C",
"<  c #1C1C1D",
"1  c #1D1C1D",
"2  c #1D1D1D",
"3  c #1E1D1D",
"4  c #1D1E1D",
"5  c #1E1E1D",
"6  c #1E1D1E",
"7  c #1D1E1E",
"8  c #1E1E1E",
"9  c #1E1F1E",
"0  c #1E1E1F",
"q  c #1F1E1F",
"w  c #1E1F1F",
"e  c gray12",
"r  c #1F201F",
"t  c #20201F",
"y  c #201F20",
"u  c #202020",
"i  c #212021",
"p  c gray13",
"a  c #222222",
"s  c #232323",
"d  c #232423",
"f  c #232424",
"g  c gray14",
"h  c #252424",
"j  c #252524",
"k  c #252525",
"l  c #252526",
"z  c #252626",
"x  c gray15",
"c  c #272626",
"v  c #262726",
"b  c #272726",
"n  c #262727",
"m  c #272727",
"M  c #272827",
"N  c #282827",
"B  c #272728",
"V  c #272828",
"C  c #282828",
"Z  c #292828",
"A  c #282928",
"S  c #292928",
"D  c #292829",
"F  c #282929",
"G  c gray16",
"H  c #2A2929",
"J  c #292A29",
"K  c #292A2A",
"L  c #2A2A2A",
"P  c #2B2A2A",
"I  c #2A2B2B",
"U  c gray17",
"Y  c #2B2C2B",
"T  c #2C2C2B",
"R  c #2C2B2C",
"E  c #2B2C2C",
"W  c #2C2C2C",
"Q  c #2C2D2C",
"!  c #2D2D2C",
"~  c #2C2C2D",
"^  c #2D2C2D",
"/  c #2C2D2D",
"(  c #2D2D2D",
")  c #2E2D2D",
"_  c #2E2E2D",
"`  c #2E2D2E",
"'  c #2D2E2E",
"]  c gray18",
"[  c #2F2F2E",
"{  c #2F2E2F",
"}  c #2E2F2F",
"|  c #2F2F2F",
" . c #30302F",
".. c #2F2F30",
"X. c #302F30",
"o. c gray19",
"O. c #313030",
"+. c #303130",
"@. c #313031",
"#. c #303131",
"$. c #313131",
"%. c #313132",
"&. c #323132",
"*. c #323232",
"=. c #323332",
"-. c #323233",
";. c gray20",
":. c #343433",
">. c #333434",
",. c #343434",
"<. c #353434",
"1. c #353535",
"2. c #353635",
"3. c #353536",
"4. c #353636",
"5. c gray21",
"6. c #373736",
"7. c #373637",
"8. c #373737",
"9. c #373838",
"0. c gray22",
"q. c #383938",
"w. c #393938",
"e. c #383839",
"r. c #393839",
"t. c #393939",
"y. c #3A3A3A",
"u. c gray23",
"i. c #3C3B3B",
"p. c #3C3C3C",
"a. c gray24",
"s. c #3E3D3E",
"d. c #3E3E3E",
"f. c #3F3E3E",
"g. c #3F3E3F",
"h. c #3E3F3F",
"j. c #3F3F3F",
"k. c gray25",
"l. c #414141",
"z. c gray26",
"x. c #434343",
"c. c #444444",
"v. c #464646",
"b. c #474746",
"n. c gray28",
"m. c #484848",
"M. c #494949",
"N. c gray29",
"B. c #4B4B4B",
"V. c #4B4C4C",
"C. c #4C4C4C",
"Z. c gray30",
"A. c #4E4E4E",
"S. c gray31",
"D. c #505050",
"F. c #505151",
"G. c #515151",
"H. c gray32",
"J. c #535252",
"K. c #535353",
"L. c #555454",
"P. c #555555",
"I. c #565656",
"U. c gray34",
"Y. c #585858",
"T. c #585959",
"R. c gray35",
"E. c #5A5A5A",
"W. c #5B5A5A",
"Q. c #5A5B5B",
"!. c #5B5B5B",
"~. c gray36",
"^. c #5D5D5D",
"/. c #5E5D5D",
"(. c #5D5E5E",
"). c gray37",
"_. c #5F5F5E",
"`. c #5F5F5F",
"'. c #5F5F60",
"]. c #606060",
"[. c gray38",
"{. c #626262",
"}. c #636263",
"|. c gray39",
" X c #646464",
".X c #646564",
"XX c #656564",
"oX c #656565",
"OX c #656665",
"+X c #666566",
"@X c gray40",
"#X c #676767",
"$X c DimGray",
"%X c #6A6A6A",
"&X c gray42",
"*X c #6C6C6C",
"=X c gray43",
"-X c #6F6F6F",
";X c gray44",
":X c #717171",
">X c #717271",
",X c gray45",
"<X c gray46",
"1X c #767676",
"2X c #777777",
"3X c #808181",
"4X c #838383",
"5X c #888888",
"6X c gray54",
"7X c gray55",
"8X c #8D8D8D",
"9X c #8E8E8E",
"0X c gray56",
"qX c gray57",
"wX c #929292",
"eX c gray59",
"rX c gray61",
"tX c gray62",
"yX c #A3A2A2",
"uX c gray64",
"iX c #A5A5A5",
"pX c gray65",
"aX c #AFAFAF",
"sX c #B0B0B1",
"dX c gray70",
"fX c #C8C8C8",
"gX c #CDCDCD",
"hX c #F3F3F3",
"jX c #F9F9F9",
"kX c #FDFDFD",
"lX c #FEFEFE",
"zX c gray100",
"xX c None",
/* pixels */
"xXxXxXxXxXC E ( ( o.o.o.;.;.,.,.,.,.,.,.,.,.;.o.o...( xXxXxXxXxX",
"xXxXxXk C Y ( ( o.o.o.;.,.,.8.,.8.,.8.8.,.,.,.;.o...( ( ( xXxXxX",
"xXxXk V C ( ( ( o.;.,.,.,.,.0.,.y.,.y.8.8.,.,.,.o.o.o.X.( C xXxX",
"xXk C C C ( ( ( o.o.,.,.8.y.y.y.y.y.y.y.8.y.8.,.,.;.o.o.( ( C xX",
"xXk C C k k C ( ( +.+.,.,.,.,.,.,.y.,.j.y.8.8.,.,.,.o.o.X.( C xX",
"k k C ,.!.!.^.^.^.].^.].@X].@X@X@X@X@X@X*XE y.8.,.,.;.o. .( ( C ",
"k k C C ( o.o.o.<.,.,.y.y.j.9.( B.D.o.o.o.-X:X( 8.,.;.o.o.( ( C ",
"k V C C ( ( o.,.>.,.y.y.o.1X%X1X!.U.1X&X-XB.( ,Xc.0.,.o.o.( ( C ",
"k M C C ( ( o.,.,.8.,.].:X( j.j.k.,.y.k.,.!.2XC ~.B.,.o.o...( C ",
"k M C ( ( ( o.o.,.o.*Xc.y.y.j.j.j.%X@X].S.j.o.6X( ^.i.o.o.( ( C ",
"k k C C ( ( o.o.<.@Xj.y.y.j.j.j.j.j.j.y.S.%Xo.( 4Xk %X( X.( ( C ",
"k M C ( ( ( o.o.c.K.,.y.y.y.u.U.^.j.p.j.j.o.:Xo.;.%Xf.G...( ( Y ",
"k k C Y ( ( o.o.@Xo.8.y.8.+.k 6XyXf k y.p.y.y.'.y.*Xg ^.( T Y C ",
"k k C C C ( ( ( |.,.,.8.S.rXzXzXzXzXzXfXo.y.y.].C k %X@X9 ( C C ",
"k k k C ( ( ( *Xs ,.,.,.,.o.o.8XpX( o.gX8X0.0.C ].( ].( U.R ( C ",
"s d k 8.T C o.^.C o.<.<.,.y.y.qXuXC g sXeX0.,.o.U.y.^.9 ^.E C B ",
"s g k B.s ( ( !.C j.o.o.,.c.S.qXzXzXzXhXy.,.,.( U.@Xy.f c.( C k ",
"s s k j.,.C C ^.C U.( o.o.o.o.qXaXc.B.k ,.,.o.( U.^.j.k o.C N M ",
"y s g X ].C ( @X9 B.,. .o.o.<.8XpX;.o.o.o.o.X.s U.^.B.k C C k k ",
"9 s s 9 U.k C C U.s !.X.o.o.o.8XpXo.;.o. .X.X.^.o.B.C C C k k k ",
"9 s s s ^.@ k k !.C S.o.( ( j.rXdXo...( ( ( k U. Xk C C k k k k ",
"9 y y s @ !.C C k.k.C ].k U 3XjXzXy.( ( ( s :Xc.0.C C k k k s s ",
"9 y 9 s s S.C k k ].k s !.j.s G.^.C ( C ,.].k.c.C B k k s s s s ",
"1 9 9 9 s 9 %X* k 1 *XC C y.G.G.!.!.G.G.,.@Xj.C k k k s s s y 9 ",
"1 9 9 9 9 s X &Xs k 9 !.G.- k y .   c.U.|.* k k k k s y s y t 9 ",
"1 1 1 9 9 y y * G.B.* k C ^.!.U.j.!.s * C k k s s s s s 9 y 9 9 ",
"* * 1 9 9 9 y s s c U.!.c * X $ S.,.j.o.# 9 1 - 9 * * * 1 1 9 9 ",
"xX9 1 1 1 9 1 9 y y y X n.U.S.S.S.S.C.S.S.S.C.S.S.B.B.C.( 9 9 xX",
"xX1 * 1 1 1 9 1 9 9 9 y y y s y s s s e s y s 9 y 9 9 9 9 1 = xX",
"xXxX9 * = 1 - 9 9 9 9 1 9 9 e y 9 y y e y 9 9 1 9 1 9 - 1 = xXxX",
"xXxXxX9 9 * * 1 1 ; 1 9 9 9 9 9 9 9 9 9 9 9 9 9 9 1 * 1 9 xXxXxX",
"xXxXxXxXxX9 * 1 1 * 1 = 1 1 * 1 9 1 1 9 * 1 1 - - - 9 xXxXxXxXxX"
};
