/* XPM */
static char *_621469dcc9e4417c76d4d054a3505ae[] = {
/* columns rows colors chars-per-pixel */
"128 128 66 1 ",
"  c #0F0F0E",
". c #141414",
"X c #1D1D1D",
"o c #201F1F",
"O c #1F201F",
"+ c #20201F",
"@ c #1F1F20",
"# c #201F20",
"$ c #1F2020",
"% c #232323",
"& c #282727",
"* c #272827",
"= c #282827",
"- c #272728",
"; c #282728",
": c #272828",
"> c #2B2B2B",
", c #302F2F",
"< c #2F302F",
"1 c #30302F",
"2 c #2F2F30",
"3 c #302F30",
"4 c #2F3030",
"5 c #333333",
"6 c #383737",
"7 c #373837",
"8 c #383837",
"9 c #373738",
"0 c #383738",
"q c #373838",
"w c #3B3B3B",
"e c #403F3F",
"r c #40403F",
"t c #403F40",
"y c #3F4040",
"u c #414141",
"i c #4C4C4C",
"p c #4F504F",
"a c #545454",
"s c #575857",
"d c #5B5B5B",
"f c #646464",
"g c #676768",
"h c #6B6B6B",
"j c #6F6F70",
"k c #747474",
"l c #7B7B7B",
"z c #838383",
"x c #8C8C8C",
"c c #949494",
"v c #9C9C9C",
"b c #A3A3A3",
"n c #ACACAC",
"m c #B4B4B4",
"M c #BCBCBC",
"N c #C3C3C3",
"B c #CBCBCB",
"V c #D3D3D3",
"C c #D8D7D8",
"Z c #DBDBDB",
"A c #E4E4E4",
"S c #E8E8E7",
"D c #EBEBEB",
"F c #F3F3F3",
"G c #FFFFFF",
"H c None",
/* pixels */
"HHHHHHHHHHHHHHHHHHHHHHHHHH>>>>>>>><>,<>33<3311521554551555555555555q55w555555555555551155151222152<<<<HHHHHHHHHHHHHHHHHHHHHHHHHH",
"HHHHHHHHHHHHHHHHHHHHHH;>>>>>:><><>>32><<331122155552525555557555555555555555555555555555151552112222<><<><HHHHHHHHHHHHHHHHHHHHHH",
"HHHHHHHHHHHHHHHHHHH:=:;>:;>><>>>>2<2>3,<131115452555555565555555555555555555555w55555555515115122152<<><>>>><HHHHHHHHHHHHHHHHHHH",
"HHHHHHHHHHHHHHHHH:::=>>;>>>>>>>,>,>>33<312512551515555555555585ww55w5w55w55w055558555555555545551122<23><33>>><HHHHHHHHHHHHHHHHH",
"HHHHHHHHHHHHHHH::;=:>>:>;<;<>;,<<>2<22251552555555555955595556w555w55ww5555w5575055555565555155112113<<>><><>>>><HHHHHHHHHHHHHHH",
"HHHHHHHHHHHHHH=;;;==;:>=<;<;><;<><2<222125142535555555555q5ww5505w50755www55w5w5559565555555551555533333<<3><3>><:HHHHHHHHHHHHHH",
"HHHHHHHHHHHH==:;;>:>>>>>:<;<<<,<<<221121125555555955559555w555w565555w55555w055w5657555555555154525111333<3>>3<>;>;<HHHHHHHHHHHH",
"HHHHHHHHHHH=%=;;;;>;>;>><;<,;;<<222111255515555555559959w55q5w555ww8w5w59w5w5w5595w55w55595555551513511333><3>>><><::HHHHHHHHHHH",
"HHHHHHHHHH&%&%:;;;:>>;>2;<><>3<>221152215555555555505w557566w5ww5w5www5ww555ww595q55w5w55555555552521521122<<>><<>><<;HHHHHHHHHH",
"HHHHHHHHH:&:&:::;;>;:>>>,;><<><3211125511155555559595w5w5ww555w5w5ww55ww5ww8w5w595w556565w5855555555252115>22>3><>>;;>>HHHHHHHHH",
"HHHHHHHH%&%:==>;<:;>>>>><<;>,>,>212222155556955q555w0565w55www5ww5w5www5wqw65ww55w55w555w5555695551554121322,<3>;<>>>>:;HHHHHHHH",
"HHHHHHH%:%&:===;;;>;>>>>;<,<<<331135555555555550w5w555ww5w5w5ww5www5w5w5w95ww5www0ww5ww5w55755555515155213223><>;<<;<><><HHHHHHH",
"HHHHHH%:&%:&::=;;;>>>>>><>><><<315215551555555555555www5www5w6qw85wwww5ww5w5www5w5w55w55555w5555555515251122223<,;<;;<;;;:HHHHHH",
"HHHHHH&%&:::;;=>>>;>>>><>>3>33,31452151555555ww55ww5w55ww5qwwwwqwwwwwwwwwwwww5www58ww5ww5w556585595515525151<2><<<<<<;<;<<HHHHHH",
"HHHHH%%&%&%:;;>;>:>>>>>><><<<<3321155555w55q55w55w555w5ww5w55wwww9w85wwqwwwwww5www7ww5w55ww550555595555512212<<>,>>>;<<;:;;HHHHH",
"HHHH%%:::&::;;:>>>>>>>><>3><<,135155155555557555w5wwwqw5qwwwwwwqwwwwwwwwwwww5www5ww5ww5ww5w55w5w55555515553124<<><<><,;<;>::HHHH",
"HHHH&%:%===;;;=>:;>><;<><<>33333535555555559565w5w9ww5www5w8www8wwwwwwwwwwwwwwwww6w75w5ww95w55555555551551511322,3><>>>>>>:;HHHH",
"HHH%%%&&*=:;>::>>>>>:<<><><<<311135155955955w5w5w5w58w95wwww6wwwwwwwwwwwwwww0wwwww6wwww95ww55w7599555555525312<2,><>,>>>>;>>;HHH",
"HHH:%:%:&%:;=:>;>>>><><>>>3<2511551555555509w5w55wwwwwwwwwwwwwwwwwwwwwwwwwwwwwww0ww9ww5ww5w7w5ww55595555532111123>>>>><>>>>:>HHH",
"HH%%%=&:=::=:>;:;>>>;<;<,<3321151555555555w559565w5ww5wwwwwwwwwwwwwwwwwwwwwwwwwwww0ww5wwqw5w565590555955555511123<<3,>>>>>:>:>HH",
"HH%%%=%%=:::=:,      .............X.X..XXXXXXXXXXX%X@@%XX%X%%%%%%%%%%%*=<50wwwwwwwwww6w5w0w5w5855556555545415223,<<>>3>>>>>;>>HH",
"HH-%:%:&&:::=>XSFFFFFFFFDFFFFFFFFFFFFFFFFFFFFDFFFFFFFFFFFFFFFFFFFFFFFFFFDABbki55wwwwwwwww55www5ww5w5555555551341><><3>>2>>>:;;HH",
"H%%&%=&=:;:;:>>%%%%%+%%%%:-:->:>:>>>:<<<<2<<<33<23115515551555555555w555<3ihvNDZcs>wwwwwww7w5w555w5595555135152532<<<>>>>>;<;:;H",
"H%%%&=%==;;;>;:>>>>>>>11333321155555515555505w0wwwwwwwwwwwwwuwwwwwrwwwweywwww01ulNDnu<ww5ww5w0w555w559555545512133<>><>><>>:<<;H",
"H%&%=&%:=::;>>>:>>>>>><3<<1115155555555w5w5w5ww5w5wwwqwwwwywwuuwuwwuwrwewwuwwywwww1jBSl:www50w5ww5575555555552113><,><><;<>>:>:H",
"H%%:%:&:==:;>;=>>>><2<>><<1151555555555555w5ww5wwwwwwwwwwewwywwwweuwuwuwuwuwrwwwwtwwwuvFx,www5w5w5w55755555152143<<>,><:<;>>>;;H",
"%%&%&%%:;>==>;>>>>>>>3<<<,33121555550w5ww55w9wqwww5wwwwwwwwwwwwwrwwuwuywwuwuwtywwwwwwww5xGk<www5ww55955555455212313<<>,<><;;;>>:",
":%%:%&;:;::>:>>>>>>>,>><<33355355558557558w5w5wwwwwwwwwwwwewww<wdkzxxxzkfw>5wuwwuwtwwwwww1nAi909555w555w55551552113><,;<<;;<>>;>",
"%%&%::&&::;;>>>>>>>>><>2242225525555555ww5w55ww5wwwwwwwyw5ujnSGFBnccccvnBDGSnku5wewwewwww05uSv1ww5w5w855955415511322<;,>>>>>>>>=",
"%%%&&%&::>;>;;;>>,>3><3322251555555555w55wwwwwwwwwwwww5icSAnku>0wuuuuuuww5<uknZFvs1wwwwwwwww<xDi0w5555555555551115<<<><><>>>>:>:",
":%%:%:&:;;:>>;>>>>><<><<2152513555555ww5w55ww5w59www1kZDxu5wywuwwwuuwwuuuuwwwt0wlSAl5wwww0www5uFg15ww5w55555545333>3<<><>>>>>>;>",
"%%%&:%&:;;:;;>>>>>>><><2211145455585555655w05wwwww<xGmi5wywuwuwuuurwutuwuwuytwwuy5unGc5wwww00ww1Vv<55955555155111322,,>><>>>::>=",
"%%%::%::;;::>>>>>>>>3<<,<33315555559w5055w0w59ww3lGv0wwtwwwuuwtwtuuwuuuruwuuuwtwuwww1vGz1ww0www0<mm<5955595555221522<>2>>>>>>;>;",
"%;%&%&::;;>;>;>><>>,3>3><33125155555555w5q6www5iSM5wwwwewuwrwurewwuuuuwuuuwwuuwuwtwyww1mFp5w5w5w5<xB<5955551535311223><>>>>>>>;;",
"%&=%%:&:;=:>=>>>>>>><>3<111525355555585ww5w5w>cFd5wwwwwwwuuwuwuuuuuuwuuuuuuuwuuwuwywwwwwaDb<www5w61xV:5555551525322<3<3>>>>><;>;",
"%%%:&:%&>=;>>>>;>>2>><<35131515555595w555www5An1wwwwwywtwwwuwuwwwruuwwwwuwwtuwwuuwwwywuww5vSww0w0691zN<555555541322<><3><>>>;:<;",
"%%%;&%&:;;=>:>>>>><3<3><23151555555959w5w5wiGh5wwwwwwwwwuwuwuwutuuwwnMmbxf:wutwwyuwwywwwww0fGs50w55w3bv<59515112112<>2<><><;<>;;",
"%&-%%&&=>::=>;>>>>>>>3><33222535555559595wdGuqwwwwwwwuwyuwwtwuwuuruu5widkvCCbi5uwwuwwwwwwwwwuFj5w0955<Bh5555555511<<<<3>;>>>;;>>",
"%%;&::::===>:>>>,>>><><<11551155555555955gF57wwwwwwwwwywwwuwuwuuuwuuuruuuuw<dnZc5wwwwwwwwwwww1Dk555905>Du55552531522>2><<>>>>;>:",
"%%%:&%&=:=>;>=>>>>>><3332124555555955w5wgF5w7q9wwwwwwuwwwuwuwuywyuuwuuwuwrrwuw<jZmwwwwwwwww9ww5Sl5w5690wF-5515121122<>3>>>>>>>>;",
"%%%&%&:;:::>>>;>>>>>3,>3212525555655555pF5w5ww5ww5wwwwwyrwywwuwrwuuutuuwuywuywur5sZc<wywwwwwwww<Dgw5w55wkn11352533<2<,><<;<:;<:;",
"%%%&&&=:;::=;>>>>2>3><,3222335415555wwuGww8w9wwwwwwwwwwwwywrtwuuwuwewuwuwuuwwuwuww<lZiwwwww5w65w5Fiw5055>Zs5551133<3>3>>><,;>;>;",
"%;%:%:::;>=>>:>>>>>>>32>2115155555555<Gi85w5w5wqqwwwwwwwwuuwwuuwuwuuuuuuwuuwtwuwytwt0Vz5wwww58w6wuG105651wD:155133>32<<>>;<:>;;>",
"%%%=%&::;;=::>=>>>><<><<214445455555<Nl55w9w5w0wwwwwwrwrwwwwuwwuwuuwwwuwyrwuwuwtwwwww3cM>w0www5w5wgZ>55555cz525111<<,>><><;<>>>;",
"%=%:&%:%==;:>>;>>>>>><<2221115555555jB<655w5wwwwwwwwwwwwwwwtuwuwuwuwuwuwuwuwuwwuewwwwwwjV<www5w5851mz95555%F<1331122<<;<><;>;;>=",
"%%%&=%&;==>>>:>>>>>,>><><,1125515555G555ww5ww5w55wwwwwwwwurwwwwuwuwuwuwtwuwuwuwwwwewwwwwdV<5ww9w5w5<Gu55551lv151132<<,<;>>>>>>:>",
"%%%::&&==:=;:=>>>>><<><222115155551Nk65w555w5ww8wwwwwwwuwwwwwwfgggiwuwuwtwuwwuwywwwwwwwwwfN55w09w5wwdV:5555%F%3133<<<;<<>>>>>:;>",
"%%&%%=%=::=>;>>;>>>>>3><<225213555pZ:5555ww5ww5wwwwwwwwwwywww1FGGGluwrwutwwuwwwwuwwwwww8wwlc50w55055<Bf55555zx31322><<>;<>>:>>==",
"%%%;%%::=:::;>:>>>>>,>,<<<3333511>Ci55005w5w5www8www9wwwwywww5DGGGlwwwtwwuwuwwuwwwwwwwwwww1Md09w70509uD:5555>F%13<<<><>>>>>;>>::",
"%%%::=%;=:::;;>>>>><><,><,2311251sB255555ww55w5ww5wwwwwwwwwyw5DGGGlwywwtwwtwwwwwwwwwwwwww59<S59555w551mg51552nd2<<<>2>>>>>>:>;;;",
"&%:%:%::===>>>:=>>>><,<<<><311532Na5555w055wq5wwwwwwww8wwwwww1DGGGlwwywwuwwwwwwwwww9www5w50wpM55w50555uA-5111iM><,><><<>2>>>;<>:",
"%%%%%&%&===;;>>>:>>>;;<><<<311550D:5555555w55ww55w5www1<11115-DGGGk515511555wuwwwwwwww0wwww55mp5w55w55<Va1512%D-<33>,>>>>>;>;;;:",
"%%%-&%:&%::;:;:>;>>><<><>33,5113bl555555w5855w5ww5ww95BGGGGGGGGGGGGGGGGGGGFBvuwwwwwwwww99www51V<5595595gm25211vf<>>,><>>>>>><;;;",
"%%%%%;:%==:;;=>>>>>>;<;<<>2<311#G%155755555w658wwfk5w1BGGGGGGGGGGGGGGGGGGGGGGGv5wwwww5www55w0qbs5755555%GX1111dn>3<3>><>>>=>::;;",
"%%%:%&&%%=;:;>>:;>;<>>,<><22333sN<1555585q555w055ln5w5BGGGGGGGGGGGGGGGGGGGGGGGGB1ww5w5w955w5555N18575551nj5311XS%>3>>>>>>;>;;>>=",
"%%%%%%&:&=>:===>>>>><>>><<<2213vj<555555559w55q5w55091VGGGGGGGGGGGGGGGGGGGGGGGGGm5wwww5www5ww55Nw5555555dn2233;Z3<<>2>>>>>>>;;::",
"%%%%%;&&%:::=:;=:>>>;<><;<>,<,%F<155555555955w5wwww5w5isapsssiDGGGxsasssssgmGGGGGdww5w5ww5w5055fx5555551:G%1133xg<><<>>>>;:>=;;>",
"%%-%%:%::%:;>;>>>:>><;<>,<<,<2%S%151515555595w95555ww5w70ww00<DGGGkwww070ww5sGGGGM5ww5ww5w5w995%Z<555555<B51132gx,<>>>>>>>>>::==",
"%%%%%%%-%&=:;;::>;;>:<;<>3><32gn23153555595505955ww5www5w50ww<DGGGlw0wwwwwwwwxGGGG:www55w5555595M:5555151bj113<wB;><>>>>>>=;::==",
"%%%%%:%:&&==;;::;>;><;<><>><21zz335155255555555w555w55ww5ww5w1DGGGkw5wwqw5w0wwGGGGu550w505w55w55lk5515515gb333<.F%,>>>>:=>=::::=",
"%%%%%%*%%;::::&:;<>;<;>>>>,>3>mi3154155555555955w5w55w86www5w<DGGGkwwwwwwwwq5:GGGGiw5w5555w55555uv5551153uN:<<,%S.;<>>>>>>>>:;;=",
"%%%%%%%::%%:&:&%;:>;>><;>2><<;Z511223525555555595q55w55ww50w6>DGGGkw5w5w5w59wuGGGGw555www5555995:B>55513,%A%<<,:VX>>>>;>:;=;;;==",
"%%%%%%%%&%::&:XCs:;;;>><>>33>%F%2115145511555595555w55q555w58<DGGGkw5ww5w5ww1mGGGG:ww5w585w55555>B-1122<3%G%><,:N5<;>>>:>=;;::=&",
"%%%%%%%%%=&%&&%w<;;<>>>>>>>>3#F;22111551555555555w655w5w5w5w5<DGGGkwww5w9w5%cGGGGb55w55655555551>N%552ax<%F%,>,;mu<>>>;>>:;;:::%",
"%%%%%%%%%&:%%&:%;:=>>;>>><;<<XD&<<33515115545555555555955ww5w:DGGGMvvbvvbvbDGGGGGw5757w5555555512M%215hb<%S><<<>ni>>>:>;>=;;;==%",
"%%%%%%%%%%&&:=%m=::>>>:>;;<<<XA%><<231:55455555555q555w%,55%1<DGGGGGGGGGGGGGGGGGl9955555558555355m>111jv,;S3<>2>d9>>>>>=:=;;==*=",
"X%%%%%%%&%%:&%%B>::;=>=><;<;;%Z=<<<<32v121555255507558%GcwwGj>SGGGGGGGGGGGGGGGGx29559555555555512m:131lx<>i3>>>><;>>>;>=>::::%%=",
"%%%%%%%%%%&:%:%Mw:=:=>>>;<;<:XS%,><223b5251515555555555yw55w0>DGGGGGGGGGGGGGGSd159595559555553552M%115xh<<,,><>;zd>::>=>=::=:&:%",
"X%X%%%%%%%:%&%;bi:;;=;>>;<:<>XF%>3<,22cu215155125555555555555<SGGGBmmMmMmmmvf%559555555555551515:N#312mu<>gd<>>=hi<:;;>=::;;&&%:",
"%%%%%%%%-%%=:%:xd=;;>:>;<;>;>+G+<>2>23za312535551555559555555:DGGGj5111513<555555555555555555151:N%22-A2,;vc>><>>;;;>>;;::&:%:&%",
"X%X%%%%%%%%==&:kl:;>;>>;:<;<>%S=><<><>hz112251155551155555955<DGGGj55955555w555w5555551515111152%V;<2@F%><&%>>>>><:<:>:;:&%:&=&%",
"%X%%%%%-%%%%%%&dx===;::>;;>;:=Ne>>>3<22n241411511155555555555:SGGGk555555555555555555555555152221n<<<wN:<<==>>>>;;;;;;:;:&&=%:%%",
"%X@%%%%%%%%%%%%>B%=:::;;:>>>>>xh>><>,<XB;,<333111515555225555-DGGGj95555505555555555155213511133dz2<<zx<>>xz>>>=;>>;::::&&;%:&%%",
"o%%#X%#%%%%%%;%.FX%&::=>=>;>:>jv>,>3>2&B#3<<13331125541555555-SGGGj5555555555555155455515521133<nt><;Mt>>>kg>>>>>>:=;::&:%%&&%%%",
"X%%%%%%%%%%%%:%%BX%&=>:;;>>>>>5B;>>>><>lg3<22<335112255451551-SGGGj555155511551552532155221112,%VX<>%G#>>>:;>;>>>===;;&&&&%=:%%%",
"%XX%X%X%%%%%%%&%cg&==;;;=:=>;>XG.<>>>>2>M>>3<<<32415235153355-DGGGj5355515551551551524311211223wn><<db>>>>><>;>;;:>;;;::%::%%%=%",
"X%%X%%+%%%%%%&%%iv%&==::;;>;:>:nd><>>>3;BX>3<3><<332452254111%SGGGj1555515515415353111331122<>,ci<>;Np><>>:;<:>:>::::;&%%&:%&%%%",
"+#X%o%@%%%#%%%%%XDX:%==:::=:;>>hv;>>>>><hl3>>>32<<<2111211525=DGGGj51121551515125121113,222<<>XC#><>FX>>>><;<;>;==;;::%=::%:%%%%",
"%XX%X%%%%%%%%%%%XM,%:%=&::=>>=>XG.>>>>>>%V%>3<3<>3<<211121111-DGGGj11552214111151111112<23<<<<kk>3<xl,>>>;>>:;;:::;==%&:&%%%%%%%",
"%X%X%X%O%%%%%%%%%jx:%=%&===;:;>=Md;>>>>><zg3>>>2><<<222222511%SGGGj12225122254221342223><><><#Z%>>#GX:>;;>>;:;;>;:==&:%%&%%-%%%%",
"XX%XX%%%%O%%%%%%%XAX%%:&-:::::;;im;:>>>>>%Z+><<<,<<<<>,<<3<,3%SGGGj1131133333<3<<>33,3<>><<<;lk<>>xz>>>;;>;>;:::;==&:%:%%;%%%%%%",
"X%X%X%X%%%%%%#%%%%mw%-%&%:&::=;>XF:;;>>>>>hz>><;><><><<>>3<<<%DGGGj1<<<2<<<<<<<333><<><<<<;,%Vo<>=F%>;>>>:>;;:::===%%&%&%%%%%%%%",
"%X#%X#%oX%%X%%%%%%im%-%:%&&&;>;;:kv;>::>>>+B5<;,,><>,,,<<<;&&XSGGGg::3<<333>>>3,<<>233>>,>>%Mu,>=mj>>:>>:>=:;;:&:%%=;%*%%&%%%%%%",
"XoXX%OX%%X%%X%%%%%.S-%:%::%&:;;::XG%>;>>:>>:Zo;<>>>1>>>,>;nVVVGGGGAVz<><><,<,<<>>2,>>>>2>>,hc;;<iC+;>>;::==>;;&&=&:%:%%;%%%%%%%%",
"X%$%X%%X%%+%%X%%%%%db&%%&%:;&&::;;jb&=>>;>;<sM%;,>>>>>,>>;BGGGGGGGGGv<>3>,<,,,><33><<>>>>,8CX>>%F8:>>;>:=;;;:=&&%::%&%%%%%%%OX%%",
"XXXXoXX%XX%%%%%%%%%.S%:%%&%&:%:%;;XFw:;:>>;>:zz:>>>>>>>><;BGGGGGGGGGc>><<,>><;<<>>>>>>><>=Z%>:%Nj>>;;>==:;:=::%:%&%-%%%%%%%$%%%o",
"XX%%XX%X%X%X%#%X%%%%pmX%%%::&%:&;;>uAX=:;>;;;%nh;>>><>><>;BGGGGGGGGGc>>3>>><;<>>>>>>>>>>%Z5>:;lm%>:>;;:::===;%:%:%%%%%%%%%%%%%%X",
"XXXX%XX%X%#%X%%%%%%%XBw%=%%:%:&&:::&bl&==><;>;Xnk%>>>>>>>:gllkFGGGbld<>><>>><;><>><>>>>;A5>;:aS%=;:=;;:::===&:%;%&&%%&%%%%%%X%O%",
"XXX%XXoXO%%%X%%%%%%%%:SX%%%::%%:%=%&XFw;=:;>;>>+xbX>>:>><;>><%SGGGj>>>>>><;<><>>>>>>:<5A<<:;uF>>:::::;:=&%:&%:=%%%%%%%%%%#%%O%X%",
"XXX$o%X%#XXX%XX%X%%%%%xl&%%%%&:%:&:;%wF%::;;>::>=gV%>>:>;<;<:%FGGGj><><>>><;>>;>>>>>%hB%;;<eF5>;;;:::;&=;&%:%&:%%%%%%%%%%%#%%X%X",
"XXXXX$X$%%X%XO%X%%%X%%.S5%-%&%:;%:%:::fVX==:::;>:;5As%>>;><:;<1,<,>:>>>>>>;<>>:>;;:;Nx%;:=eF5>;;;===::&%%:::%%;%%%%%%%o%X%O%#%X%",
"X#oXXXX%XX%X%%X%X%%%%%%;SX%%%%%%%&&;%&ovmX=:;:=====XcN5=<;;>;::<:<;>;>:>;>;:>:>:>XzBe;::&dF5;;;:>===&%&==%&%&%%%%%%%%o%%%%%X%X%X",
"XXXXXX%XXX@XX%X%%%$%%X%%fNX%%%%;&&%:%:%Xnv+%;::;;;;>&,MM5%;>;>;;;<>;>>;>>;;>>;=%kAg%&:&oxZ%:;;:::%::&%:&;%%%%%%%%%%%%%O%%XX%XX#%",
"XXX+#XXXX%X%%X%XX%%o%%%OXczX%%%%%%%&&=:&XMbX==;;;:;;==%5nNkX&;<:;:;:>;>:>>:=XibNk.;<::<ZvX:::==::&&%%&:%%&*%%%%%%%%%%X%O%%%XO%OX",
"XXXXOXXX$+%XX%X#%+%X%X%%%.Bf%%:%%%%&%::%&Xnmo==::::::::;%XhBNxu%%o+%%%+X+6hmVcw%:;;;ohGi%:::=&&:&%:&&:%%:%%%%%%%%%%%%%X%X%#%%X%X",
"XXXXXX#@XXXoXOX%XX%%@%%%%%.Zs%%%%%%%%&%;%%XzA:==&&;=:::::&=%XucmMNBBBBBMMbf%X==::;%uAnX%%:;&&&%%&&%&%%:%%%%%%%%%X%%%#%%O%XX%X%XX",
"XXXXXXXXXO%X%X%X%X#%%X%%%$%XAs%%%%%%%::%&%:%sFi%%::;;::::::::;:&%X.....#%&::::::%6NVu%::::;%%&=%%::%&%%%%%%%%%%%%%o%%X%%XX%X+X%X",
"XXXX.XXXX#XXXXXOX%%X%XX%%%%+.ZgX%%%%%%%%%&&%%<ScX;%&&%::&&::&>::%:&:&:::;;:;:%XdVBi%%&&%&:%&::%&%%%:%%%&%%%%%%%X@%%XX%X%X%X%X$#X",
"XXXXXXXoXX#XX%XX%XX%o%%XX%%%%.Bx.%%%%%%%%&%%&%.xDsX%&=&&::%;&&&:&:%:&&%:;;%.sbFbuX:&;%:&%&::%:%:&%%%%%%%%%%%%%%%%$%X%XXX%%XoX%XX",
"XXXXXXXXOXXX#XX%X%XXX%X%%Xo%X%.cNX%%%%=%%%%%%:%%<BBw%%&%%&:&&%&%:%%%XXX<pzCFnaX%:%:%&:%&:%%%&%%%%%%%%%%%%%X%X%O%o%O%%X%%XXX#XX#X",
"XX.XXXXXXXXOXXX%XX%X%XX%X%$%%%XXdS0%%%%%%%%%%%%%%#iZMpX%-%-:;%%;&iMMVSDNbl5.%:&&&%:&%:&:%%%:%%%%%%%%%%%%X%%%X%%@%XX%X%XO%XX%XXX#",
"XXXXXXXXXXXXXXXXX%XX%OX%%X%X+%%%%%Al.%%%%%%%%%%%%%%XuNDk%X:%%;:%&:w5%.X@&%&%%&%:%&:%&%%%&%%%%%%%%%%%%%%%%%%#%%O%X%X%%X%XX+XXX$XX",
"HXXX.XXXXXXX+X@XX%X%X%X$Xoo%X%%X%%.zSu+%%%%%%%%-%%%%%%%xZZzi %%%%;%&%;=%=%%&%:%%=%%%-%%%%%%%%%%%%%%%%%%%%O+%%X%X%XO#XXX%@XX#X#OH",
"HXXXXXXXXXXX#XXXXXXXXXX%X%X%$%X%$O%%>BM%%%%%%%%%%&%%%%%%X<jNFVnxdw1<=&%X%%+X-%%X%%;%%%*%%&%%%%%%%%%%X%#%%@%%X%X%X%%XX%@X$XXOXXXH",
"HXXX.XXXXXXXXXXX+XXX%XX%O%%X$o%X%%X%%XuZb<X%%%%%%%%%%%%%%%%%X%ukvmMNk%%Gg%jG.%cAX%%%%%%%%%%%#%%%#o%%%X%X%%O%%XoO%XX%@$$XXXXoX$XH",
"HXXXXXXXXXXXX.XXXXXXX$XXXX#X%XX%X%%OoX@.dVMi.%%%%%%%%%%%%%%%%%%%%%%X%%%1;%%%%%%%%%%%%%%%%%%%%%X%%%%@%+$%%X#X@X%XX%XXX@XXX$XXXXXH",
"HHX.XXXXXX.XXXXXX$%XXXOoX%X%%X%X%XX%%O%%%X<nFx5.%%%%%%%%%%%%%%%%%%%%%%%%%%%%%%%%%%%%%%%%%%%%X%X%%%%X%%%oO%%X+%#XX+%XX+XXXX$XXXHH",
"HHXXXX.X.XXXXXXXXXXXXXXO@XX#XX%+X%X%X%X%#X%% gnSbj% X%%%%%%%%%%%%%%%%%%%%%%%%%%%%%%%%%%%%%##%%%%O%X%X%X%XX%XX%o%%XX@XXXXoXXXXXHH",
"HHXXXXXXXX.XXXXXXXXXOXXXXXX%XXX%+%XX%+X%%%%XO%X.wzBDZbzsw5<<<<3,<2221111<<<3<3<2<<<<<<<<<<><<<:<<:;<<:>><::<>::;:%XXXXXXXXXXXXHH",
"HHHXXXX.XXXXXXXXXXXXXXoXXXXo%XXXX%X%XX%@@X#%%X$%%%X..ugxbnmmmmmmmmmmmmmmmmmmmmmmmmmmmmmmmmmmmmmmmmmmmmmmmmmmmmmmmdXXXXXXXXXXXHHH",
"HHHXXXXXXXXXXXXXXXXXXX#X@XXXX%%XXXX%@%%XX%X%%%@%X%X#%$%%+XXXXoXXX%@XXX%@XXXXX#XXX#XX#XXXXXXXXXXXXXXXXXXXXXXXXXXXXXXXXXXXXXXXXHHH",
"HHHH.XXXX.XXX.XXXXXXXXXX+XXXXXXX%XX+XX#X%X%XX%XO%+%%%%X%%%%%#%%%%%#%%%%%%%%%%%%%#%%#%#%#%o%@%#%X%X#%%oXooXX$XXXXXXoXXXXXXXXXHHHH",
"HHHHXXXXXXX.XXXXXXXXXXXXXXXXXXXXX%X%XX#%XX%XO%XX%#X%%%%$#%$%%o%%o%%%%%%%%X%%X%X%%X%O%XX%oOX%Xo%%%X$@%XX#X#X+XXXXXXXXXXXXX.XXHHHH",
"HHHHHX.XXXXXXX.XXXXXXXXXXXXXXXXX$XXX%XXXX%o+X%#%XX%XXXX%@X%XX%XX%X%XX%X%X%X%%$X%o%X%X%%oX%%X%$XXX%XXXX%oX$XXXXXXXXXXXXXXXXXHHHHH",
"HHHHHHXXX.XXXXXXXX.XXXXXXXXX%XXXXXXOXX#%X%X%%XXX+%@%$%X+%Xo%%XO%X%X@%X@X%%XX+Xo%X@%X%%XXX%X%X%%XX$%XXX#X+X#XXXXXXXXXXXXXXXHHHHHH",
"HHHHHHXXXXXXX.X..XXX.XXXXXXXXXXOOXXXXXXXXXXXXX%%XXX%oX%X%#X%X%X%%XX%+X%%X#$%%%@X%oX%X#O%++XXoXXXXOXOXXXX$XXXXXXXXXXXXX.XXXHHHHHH",
"HHHHHHHXXX.XXXXXXX.XXXXXXXXXXXXXXXXXXXXXXXXX%X#XXXOX#%X%X%O%%Xo@X%X%X%X+X%XXXX%XX%X$X%%+X%X%XX%XXXOXXXXXXoXXXXXXXXX.XXXXXHHHHHHH",
"HHHHHHHHXXXXX.XXXXXXXXX.X.XXXXXXXXXXXXXX%XXXXXOX%XX%X%X@XXXXOX%X%X%XXX%X%X%%X%X%%XX$XXXXXXX%+XX$#X#XXXXoXXXXXXXXXXXXXXXXHHHHHHHH",
"HHHHHHHHHXXXXXX.XXXXXXXXXXXX.XXXXXXXXXXXXXX%XX%XX@XXoXXXX@oXX%XXX%X%%X%%XX%X%XXo%XX%%X%XXOXXXXXX%XXXXXXXXXXXXXXXX.XXXXXHHHHHHHHH",
"HHHHHHHHHH.XXXXXX.XX.XXX.XXXXXXXXXXXXXXXXXXXXXXXXOXXXo$X%XX%X%X%XXXXXXXX%XXXXX%XXOXXXXXXX@XXX$oXXXXOXXXXXXXXXX.XXXXXX.HHHHHHHHHH",
"HHHHHHHHHHHXXXXXXXX.XXXXXX.XXXX.XXXXXXXXXXXXXXXXX$XoX%XXXOXXX@X@Oo$X@XXXXXX%XXXXXOXXX+X#XXXXXXXXXXXXXXXXXXXXXXXXXXXXXHHHHHHHHHHH",
"HHHHHHHHHHHHXXXXXXXXXX.XXXXXXXXXX.XXXXXXXXXXXXXXXXXoXXXXXXXO@XX+XXXXXXoXXXXXXXX%XXX@XXXXXXXXXXXXXXXXXXXXXX.XXXX.XXXXHHHHHHHHHHHH",
"HHHHHHHHHHHHHHXXX.XXXXXXX.XXX.XXXXX..XXXXXXXXXXXXXXXX$XXXXXXXXXXXXXoXoXXX%XX%XXXXXXX@XOXXXXXXXXXXXXXXX.XXXXX.XXX.XHHHHHHHHHHHHHH",
"HHHHHHHHHHHHHHHXXXXXX.XXXXXXXXXXXXXXXXXXX.XXXXXXXXXXXXXXXXXXXO#XX$X@XXXXXXXXXXXXXXXXXXXXXXXXXXXXXXXX.XXX.XXXXXXXXHHHHHHHHHHHHHHH",
"HHHHHHHHHHHHHHHHHXXXXXX..XXXXX.X.XXXXXXXXXX.XXXXXXXXXXXXXXXXXXXXXX@XXXXXXXXXXXXXXXXXXXXXXXXXXXXX.XXXXXXXXXXXXXXHHHHHHHHHHHHHHHHH",
"HHHHHHHHHHHHHHHHHHHXXXXXXXXXXXXXXXXX.XX.XXXXXXXXXXXXXXXXXXXXXXXXXXXXXXXXXXXXXXXXXXXXXXXXXXXXX.XXXXXXXXX.XXX.XHHHHHHHHHHHHHHHHHHH",
"HHHHHHHHHHHHHHHHHHHHHHXXXXX.XXXXXX.XXXXXXXXX.XXXXX.XXXXXXXXXXXXXXXXXXXXXXXXXXXXXXXXXXXX.XXXXXXX.XXX.XXXXXXHHHHHHHHHHHHHHHHHHHHHH",
"HHHHHHHHHHHHHHHHHHHHHHHHHHXXXX.XXXXXXXXXX.XXXXXX.XXXXXXXXX.XXXXXXXXXXXXXXX.XXXXXXX.XXXXXX.XXXXXXXXXXXXHHHHHHHHHHHHHHHHHHHHHHHHHH"
};
