/* XPM */
static char *_117fc1f4b5a46e0ae69e47b59949bb8[] = {
/* columns rows colors chars-per-pixel */
"16 16 103 2 ",
"   c #191919",
".  c #1B1B1B",
"X  c gray11",
"o  c #1D1D1C",
"O  c #1D1D1D",
"+  c #1E1E1D",
"@  c #1D1E1E",
"#  c #1E1E1E",
"$  c gray12",
"%  c #1F1F20",
"&  c #201F20",
"*  c #202020",
"=  c gray13",
"-  c #222222",
";  c #232323",
":  c gray14",
">  c #252525",
",  c #252625",
"<  c #262625",
"1  c #252626",
"2  c gray15",
"3  c #272727",
"4  c #282828",
"5  c #282928",
"6  c #282829",
"7  c gray16",
"8  c #292A29",
"9  c #2A2A2A",
"0  c #2A2B2A",
"q  c #2A2B2B",
"w  c gray17",
"e  c #2C2C2C",
"r  c #2D2D2D",
"t  c #2D2E2D",
"y  c gray18",
"u  c #2E2E2F",
"i  c #2F2F2F",
"p  c #302F30",
"a  c gray19",
"s  c #313031",
"d  c #313131",
"f  c #313232",
"g  c #323232",
"h  c gray20",
"j  c #343433",
"k  c #343434",
"l  c #353535",
"z  c gray21",
"x  c #363637",
"c  c #373737",
"v  c #383737",
"b  c gray22",
"n  c #393939",
"m  c #3A3A3A",
"M  c gray23",
"N  c #3C3C3C",
"B  c gray24",
"V  c #3E3E3E",
"C  c #403F3F",
"Z  c #403F40",
"A  c #414141",
"S  c #414142",
"D  c gray26",
"F  c #434343",
"G  c #444444",
"H  c gray27",
"J  c #464646",
"K  c gray28",
"L  c #484848",
"P  c #494949",
"I  c #49494A",
"U  c gray29",
"Y  c #4B4B4B",
"T  c #4C4C4C",
"R  c gray30",
"E  c #4D4E4E",
"W  c gray31",
"Q  c #505050",
"!  c #515150",
"~  c #515151",
"^  c #525151",
"/  c #515252",
"(  c gray32",
")  c gray33",
"_  c #555555",
"`  c #565656",
"'  c gray35",
"]  c #5A5A5A",
"[  c gray36",
"{  c gray37",
"}  c gray38",
"|  c #646464",
" . c #676767",
".. c #696869",
"X. c gray42",
"o. c #8E8E8E",
"O. c gray58",
"+. c #A0A1A1",
"@. c gray66",
"#. c #B9B9B9",
"$. c gray74",
"%. c #CBCBCB",
"&. c None",
/* pixels */
"&.&.7 e e g k l l l k g a t &.&.",
"&.3 e e g k c b n n b k g a e &.",
"3 7 H H P Y R Q W ^ F x l g e 7 ",
"3 7 e e g l H ^ ) ^ ' ^ l k e e ",
"3 7 e g g _ H N K Q D [ R g e t ",
"3 5 e i ^ l M D F M T n _ R e 7 ",
": 5 e 5 ! l _ #.$.O.g Q b ' 3 7 ",
": 7 e W 3 j g _ `  ...t P Z P 6 ",
"= b 3 K n e c | %.@.e e } e f 6 ",
"= . K n l M g { X.f g x E a 3 3 ",
"= = N : H K : +.o.t : Q n 3 3 = ",
"O % 7 l g l F N Q Z ^ b 3 3 = = ",
"O O = e C 3 C D 3 l h 3 3 = = % ",
"O O O = O N c i P P l l l l = O ",
"&.O O O O = O O O O O . . . O &.",
"&.&.X O O O O O % O O O O O &.&."
};
