/* XPM */
static char *cf8c89888bbf46e49ed7d153a588ca67[] = {
/* columns rows colors chars-per-pixel */
"64 64 61 1 ",
"  c gray6",
". c #151515",
"X c #181817",
"o c #181718",
"O c #1D1D1D",
"+ c #1F201F",
"@ c #20201F",
"# c #1F1F20",
"$ c #201F20",
"% c #1F2020",
"& c #232323",
"* c #282727",
"= c #272827",
"- c #282827",
"; c #272728",
": c #282728",
"> c #272828",
", c #2B2B2B",
"< c #302F2F",
"1 c #2F302F",
"2 c #30302F",
"3 c #2F2F30",
"4 c #302F30",
"5 c #2F3030",
"6 c #333333",
"7 c #383737",
"8 c #383837",
"9 c #383738",
"0 c #373838",
"q c #3B3B3B",
"w c #3F403F",
"e c #40403F",
"r c #403F40",
"t c #434343",
"y c #4B4B4B",
"u c #504F4F",
"i c #50504F",
"p c #535353",
"a c #575857",
"s c #5B5B5B",
"d c #646464",
"f c #6B6B6B",
"g c #747474",
"h c #7B7B7B",
"j c #848484",
"k c #878887",
"l c #8C8C8C",
"z c #90908F",
"x c #939393",
"c c #9B9B9B",
"v c #A3A3A3",
"b c gray67",
"n c #B3B3B3",
"m c #BABBBA",
"M c #CDCDCD",
"N c #D5D5D5",
"B c gainsboro",
"V c gray93",
"C c gray95",
"Z c #FFFFFF",
"A c None",
/* pixels */
"AAAAAAAAAAAA,,,,,1,43436666666667666766676566555611,AAAAAAAAAAAA",
"AAAAAAAAA:=,:,,1,144164646667666766666066666666533114,1AAAAAAAAA",
"AAAAAAA:::,,:1,1,411416666666667660060766666666664311,1,1AAAAAAA",
"AAAAAA=&:,:,1:,11111664667667677070606777067666564444<,,:,AAAAAA",
"AAAAA:==:,:,,11,356666666776777000770q77767666666461111,1:,AAAAA",
"AAAA::==::,1,11155466766767770000077000077760766666411,111,,AAAA",
"AAA&=::,,,,,,1,4566666676600000qqqqq90000q777666666144311:,::AAA",
"AA&&&::,:,,,,1145656666777000qq0qqqqqqqq0000007666664431111:1:AA",
"AA&&=:-:,1:111146666670708qqqqqq9qqqqqqqq009777776666411,,,,,,AA",
"A&>==::,:111346666607000qqqqqqqqqqeqqqqqqq9qq0766666641111,,,,:A",
"A&&=>::allllzlllzzzzzzxxzxxxxxxcxzxcchy,0qq9007777666<6111,,1::A",
"A&===::&oOOO#O$&%&&&;&>>:::,:1:1111,:thcxk1q0777766666161,1,,:1A",
"&=&::::,,,1,414666667777qqqqqqqqqrqrrqqq7qccr99q66666664111,,:,:",
"&:=:::1:,,,1<6166677607qqqqqqq6,uddsw:qqqqq,kc<9076766<4111,1:,,",
"&>&:::,,3,,411646666708qqqq6jccvhffgxvcca6qqq1cd77066664311,,,:,",
"&&=:::,,,,1,116666777000qtvcy6qqtrqwwr01hcl,qq9fl,066463111,1,:,",
"&:::::,,,,44446666677003vl1rqtqtqrrtwwrqwqtbf707yv;66664411,,,,,",
"&=&=:,,,,11,4464667670sb6qqqqqtqwr7qqtqqqqq0fv1q7qv:656143,1,,,,",
"&&>-=,:,,,,1646666776hh6qqqqrqqrtqhkkzs6wqqqq7mq00tl666661,1,,:,",
"&>=:--,,,,<413666676jdqqqqwqqttwwwtrq3dzl6qqqq:mq67dd633111,1,,:",
"&==::,,,,1142464660gd00q7qqqtqqwrqtrqtqw6xf0qq0:m166c,61313,,,,:",
"&=&:::,=,,,,651667yj7700qqqqqqtqqtqrtwrqqqsl,qq7,n,6;c16413,,,:,",
"&&&===,::1,111666=n:77q0qqqtqqqqqwwrrqtqqqqqv,0q7yj66hw5411,1,,:",
"&-===,:,,,1,11446x667798qqqqqq6mmywqrqqrqqqq9z6976c36&c,4,1,,,,:",
"&>&:-:,,,,,13466,c670000qq0qqq1ZZaqwqqqqqqqqqyfq67&c66l,411,,:,:",
"&&=:=:-,,,,1,136x:6667707qq:::oZZt::11qqqqqqqqk6076c;6&z41,,,,,:",
"&&&==--:,,,1114#c6667670tt,ZZZZZZZZZZZmtqqq070=k7661l6,k:1,1,:::",
"&&;&=::,:,,,11<pf6666670ya1CZZZZZZZZZZZZtq9q077k;673z:6lO,1:,,,:",
"&&=&:::,,,,,116xO5566776770qqq1ZZpqqqaBZM6000676h766x&6pa,,,,,==",
"&&&:=::&,,,,,1,z:56666676700qq:ZZpqqqqtZZ:077761h656ss1Oz1,,,::-",
"&&&&&&:&=,,1,1&l15666667760007&ZZy70qq&ZZ6676766h:63;k3Oj,,,,::=",
"&&&>==:d6::,,1oc61166666677677&ZZy665:cZC;006666j&5uoc1&k,,,::>=",
"&&&&&=:y&,,,1,Xz166:6466767,6:&ZZBNNNVZZg7766666h&:xXc1>f:,:,==&",
"&&&&&-:h&::,,,oz11:g1666666fyg1ZZZZZZZZh16666661h&1k:11&p:,,====",
"&&&&&-&dq=>:,,Xc1,:g1446666677&ZZhffff1766666666hO&l&x=:t:,::&&=",
"&&&&&&=ta>>,>,Oz:11h:164656666&ZZy77666666666556j&&l1o1,,,:::*=&",
"O&%&&&&.l::,,:=l:1<jO441556666@ZZy6666666463465:h:ft:z=,,::::&&>",
"%&&&&&&Oj&>==,,xo:1qd446566336OZZt66666666<6141&h1xo1&:,:=,:==&&",
"O&O&&&&&ko=::,,sp,:&h,1,441126OZZy666<134444313h&Oc1,:,,:,:&:&&&",
"&O@&&&&&dq&=:=>Xc1:1g3,11,1116OZZt41<163364,11Ok1j1::,::===:&=&&",
"O&&O&O&&.k&::::,zo:1Ok11111,11OZZt641114<,411,g6Oc-,,:::=&&&:&&&",
"OO$&&&&&&zo&&>::,k,,:ya1,,,1:ggZZlt111,,11<,,1h:l:,,:,::&==:&&&&",
"&@$OO&&&&Oj>-==::cO::,g6:1,,$CZZZZs1,1114,,,&c+th,:::,>&=&&&&&&&",
"OOO&O&+&&&lo&:&:;Oc&::&k6,11&nmZZMy:1,,,,,,Oc&&v+======:&=&&&+&&",
"OOO&&O&&&&.z&&:&::ss,::&hy::,=.ZZt,1,,,,,,1x$&nO=::=::=&&&&&&&@&",
"+OO#O&&O&+&ua=&;=&;kq:::=akO:,:+&:,:,:,,ogh$&nO:::==&*&&&&&+&O&O",
"OOO#O&O&&&&+j:&&&>>Oc7,==:Ojh6+::=:::&&gk,:yco::->&=&&&&&&&&&OO&",
"OO+OOO$OO&%&ov&&&&&&Xzi====:ofgghjjhgghO:Oxf&&:*&&=&&&&&&&&O&&+O",
"OOOO+@O#&OO&&.v&&&&&&&fko&&::::&o .X&:&&zzO:::>&:=&&&&&O&&O&OO&O",
"OOOOOOO&&@&OO&.xt&&&&&&1vpO:&&==>XootlkjO&=:=&&&&&&&&&&&&O&O&OOO",
"OoOOOOOOO#&&O&&odh.&&&&&Osxgo&=&,kkkso+&&>=&&=&&&&&&O&&&&&O&O&O@",
"OOOOOO++OOO@+O&&&:ct&&&&&&o7zlkd6&&O&X=o>&&&&&&&&&&&&&%OOO%#O#OO",
"AOoOOOOOOOO&&&O&&@Xala.&&&&&&O.qfh0f,j.jO&&&&&&&&&&&O&O&+O#%OO+A",
"AOOOOOOO%OOOOO@OO&&&otkjs o+&&&&&&&&&&%&&&&&&O+@&OO&OO&OO&OOOOOA",
"AOoOoOOOOO$OO@O@&OO&$&O.qkhhhhhhhhhhhhhhhhhhhhhhhhhghhggdoOOOOOA",
"AAOOOOOoOOOOO#OOOO&O&O+&&&&Oooo.ooooo.oooo...o..........oOOOOOAA",
"AAOooOOOOOOOOOOO+O+++&&O$OO&$%&O%&&&$$&O&O&+O&$&@&OO+OOOOOOOoOAA",
"AAAOOOOooOOOOOOOOOOOOOOO+&%O&&O&++&OO&O&%+O&&OO&OOO&O+OOOOOOOAAA",
"AAAAOOOOOOOOOOOOOOOOOOO&O&$&O$&O+&O&$&&OO&++O@OOOOOOOOOOOoOOAAAA",
"AAAAAOOOOOoOoOOOOOOOO&OOOOOO&OO&O%+OOO+O#%O+OOO@O$OOOOOOOOOAAAAA",
"AAAAAAOoOOOOOOOoOOOOOOOOOOOOOOOOOOO$OOO%OO+OOOOOOOOOOOOoOOAAAAAA",
"AAAAAAAOOOoOOOOOOOOOOOOOOOO@OO+O@%OOO@OOOOOOOOOOOOOOoOOOoAAAAAAA",
"AAAAAAAAAOOOOOOOOooOOoOOOOOOOOOOOOOOOOOOOOOOOOOOoOOoOOOAAAAAAAAA",
"AAAAAAAAAAAAoOOoOOOOOOOOoOOOOOOOOOOOOOOOOOOoOOOOOOOOAAAAAAAAAAAA"
};
