<?xml version="1.0" standalone="no"?>
<!DOCTYPE svg PUBLIC "-//W3C//DTD SVG 20010904//EN"
 "http://www.w3.org/TR/2001/REC-SVG-20010904/DTD/svg10.dtd">
<svg version="1.0" xmlns="http://www.w3.org/2000/svg"
 width="256.000000pt" height="256.000000pt" viewBox="0 0 256.000000 256.000000"
 preserveAspectRatio="xMidYMid meet">

<g transform="translate(0.000000,256.000000) scale(0.100000,-0.100000)"
fill="#000000" stroke="none">
<path d="M0 1280 l0 -1280 1280 0 1280 0 0 1280 0 1280 -1280 0 -1280 0 0
-1280z m1595 832 c335 -93 581 -352 649 -684 9 -42 15 -101 15 -130 -2 -50 -2
-49 -10 22 -40 346 -243 620 -551 743 -142 57 -145 58 -788 63 -327 3 -599 7
-605 9 -5 2 265 3 600 2 596 -3 612 -3 690 -25z m-121 -112 c358 -52 634 -343
660 -695 6 -77 -2 -52 -24 80 -36 217 -193 420 -405 525 -344 171 -748 63
-963 -258 -254 -381 -113 -893 303 -1096 78 -38 157 -61 261 -75 l69 -10 -80
5 c-426 24 -755 449 -684 883 66 408 458 699 863 641z m85 -201 c89 -30 202
-109 260 -181 195 -240 185 -565 -23 -785 -111 -119 -242 -179 -405 -188 l-86
-4 85 10 c144 16 226 46 326 120 131 97 218 254 231 419 13 174 -48 334 -176
460 -102 101 -205 150 -366 173 -16 3 -3 3 30 1 33 -2 89 -13 124 -25z m-229
-228 l0 -49 99 -4 c86 -3 103 -7 138 -30 98 -65 98 -199 0 -272 -23 -17 -47
-22 -135 -26 l-107 -5 0 -145 c0 -143 0 -145 23 -148 18 -3 22 -10 22 -43 0
-35 -3 -39 -25 -39 -20 0 -25 -5 -25 -25 0 -23 -4 -25 -41 -25 -39 0 -41 2
-37 25 5 23 2 25 -33 25 -39 0 -39 0 -39 40 0 39 1 40 35 40 l35 0 0 275 0
275 -75 0 -75 0 0 40 0 40 75 0 75 0 0 50 0 50 45 0 45 0 0 -49z m-320 -91 c0
-5 -4 -10 -10 -10 -5 0 -10 5 -10 10 0 6 5 10 10 10 6 0 10 -4 10 -10z m1050
-298 c-42 -262 -209 -477 -455 -584 -68 -30 -195 -59 -252 -57 -26 1 -13 5 42
14 102 16 150 29 217 59 162 73 294 202 369 361 40 82 69 179 69 226 0 15 3
42 7 60 13 63 16 -1 3 -79z m-1700 -187 c90 -285 319 -504 615 -587 78 -22 98
-23 690 -28 l610 -6 -620 1 c-619 1 -620 1 -695 24 -221 68 -390 193 -508 374
-82 126 -144 314 -141 434 1 37 4 27 14 -47 8 -52 23 -126 35 -165z m770 235
c0 -5 -7 -10 -15 -10 -8 0 -15 5 -15 10 0 6 7 10 15 10 8 0 15 -4 15 -10z m70
0 c0 -5 -4 -10 -10 -10 -5 0 -10 5 -10 10 0 6 5 10 10 10 6 0 10 -4 10 -10z
m-380 -202 c67 -178 235 -322 420 -362 36 -8 53 -15 39 -15 -37 -1 -125 27
-194 61 -77 39 -202 164 -240 238 -41 81 -63 153 -69 223 l-6 62 14 -75 c8
-41 24 -101 36 -132z m1450 178 c0 -3 -4 -8 -10 -11 -5 -3 -10 -1 -10 4 0 6 5
11 10 11 6 0 10 -2 10 -4z m-120 -31 c0 -8 -4 -15 -10 -15 -5 0 -10 7 -10 15
0 8 5 15 10 15 6 0 10 -7 10 -15z m0 -75 c0 -5 -4 -10 -10 -10 -5 0 -10 5 -10
10 0 6 5 10 10 10 6 0 10 -4 10 -10z m-710 -630 c0 -5 -4 -10 -10 -10 -5 0
-10 5 -10 10 0 6 5 10 10 10 6 0 10 -4 10 -10z m80 0 c0 -5 -7 -10 -16 -10 -8
0 -12 5 -9 10 3 6 10 10 16 10 5 0 9 -4 9 -10z m70 0 c0 -5 -4 -10 -10 -10 -5
0 -10 5 -10 10 0 6 5 10 10 10 6 0 10 -4 10 -10z"/>
<path d="M1330 1356 l0 -86 90 0 c83 0 93 2 115 25 34 33 34 83 -1 116 -22 21
-37 24 -115 27 l-89 4 0 -86z"/>
</g>
</svg>
